<svg width="48" height="48" viewBox="0 0 48 48" fill="none" xmlns="http://www.w3.org/2000/svg">
<path d="M6.15853 22.4119C6.40853 21.5119 6.99853 20.7619 7.81853 20.3119C8.63853 19.8519 9.57853 19.7419 10.4785 20.0019C11.3785 20.2519 12.1285 20.8419 12.5785 21.6619C13.0385 22.4819 13.1485 23.4219 12.8885 24.3219C12.6985 25.0019 12.3085 25.5819 11.8085 26.0219C10.7285 26.9419 10.2385 28.4119 10.8185 29.7019C12.0785 32.4819 14.5085 34.6519 17.5185 35.5019C20.4385 36.3319 23.5385 35.8119 26.0285 34.2219C27.2485 33.4419 27.9185 31.9219 27.4085 30.5619C27.0585 29.6319 27.1085 28.5419 27.6685 27.5719C28.3185 26.4519 29.5885 25.7619 30.8785 25.8519C33.1885 26.0019 34.6485 28.2019 34.0485 30.3019C33.8185 31.1119 33.3085 31.7919 32.6185 32.2519C31.8885 32.7419 31.2785 33.3819 30.7085 34.0519C28.1685 37.0819 24.3485 38.9019 20.3585 38.9019C19.1185 38.9019 17.8885 38.7319 16.6885 38.3919C13.2185 37.4119 10.3385 35.1319 8.57853 31.9919C7.75853 30.5319 7.21853 28.9219 6.98853 27.2719C6.86853 26.4319 6.68853 25.6019 6.32853 24.8319C5.96853 24.0619 5.90853 23.2319 6.12853 22.4219L6.15853 22.4119Z" fill="#010101"/>
<path d="M24.6085 13.152C22.1285 14.542 20.4685 17.0319 19.9685 19.8819C19.7285 21.2419 20.3985 22.682 21.6785 23.222C22.3685 23.512 22.9685 24.0319 23.3585 24.7319C23.8185 25.5519 23.9285 26.4919 23.6685 27.3919C23.4185 28.2919 22.8285 29.0419 22.0085 29.4919C21.4685 29.7919 20.8885 29.9319 20.3085 29.9319C19.0785 29.9319 17.8885 29.2819 17.2485 28.1419C16.6785 27.1219 16.6585 25.912 17.1885 24.862C15.8385 19.132 18.2685 13.252 23.1585 10.522C27.4685 8.11195 32.9085 8.62195 36.9885 11.6419C37.7885 12.2319 38.6885 12.642 39.6385 12.942C40.4585 13.202 41.1785 13.7719 41.6185 14.5619C42.0785 15.3819 42.1885 16.322 41.9285 17.222C41.5885 18.432 40.6285 19.372 39.3385 19.692C38.4085 19.922 37.3985 19.722 36.6085 19.182C35.5185 18.422 35.0185 17.262 35.0685 16.122C35.1285 14.732 34.4485 13.432 33.1785 12.872C30.3985 11.632 27.2385 11.6819 24.6185 13.1419L24.6085 13.152Z" fill="#010101"/>
</svg>
