<svg width="48" height="48" viewBox="0 0 48 48" fill="none" xmlns="http://www.w3.org/2000/svg">
<path d="M40.5928 15.6966C40.1583 14.9198 39.4592 14.361 38.609 14.1241C37.7588 13.8873 36.8709 13.9915 36.0963 14.4178C35.3216 14.8535 34.7643 15.5545 34.5281 16.407C34.4431 16.7006 34.4053 17.0038 34.4053 17.3069C34.4053 18.4909 34.0369 19.6466 33.2151 20.4991L21.1141 33.2489C21.0196 33.3437 20.8779 33.41 20.7551 33.391C20.6229 33.391 20.5001 33.3247 20.4151 33.2205L13.6891 24.9037C13.453 24.6101 13.3963 24.2312 13.5002 23.8712V23.8523C13.9064 22.3083 13.1129 20.6127 11.6581 19.9686C10.6851 19.5329 9.60824 19.5897 8.69192 20.1012C7.91731 20.537 7.35997 21.2379 7.1238 22.0904C6.88764 22.943 6.99155 23.8334 7.41665 24.6101C7.85119 25.3868 8.55023 25.9457 9.40041 26.1825C9.40041 26.1825 9.40986 26.1825 9.41931 26.1825C10.704 26.5425 11.9037 27.1771 12.7539 28.2096L19.5649 36.4885C19.8199 36.8011 20.1978 36.9905 20.604 37C20.6229 37 20.6418 37 20.6607 37C21.048 37 21.4164 36.839 21.6809 36.5643L35.6995 21.9578C36.4363 21.1906 37.4093 20.7643 38.439 20.5275C38.7413 20.4612 39.0341 20.3475 39.3081 20.1865C40.0827 19.7508 40.64 19.0498 40.8762 18.1973C41.1124 17.3448 41.0085 16.4544 40.5834 15.6776L40.5928 15.6966Z" fill="#010101"/>
</svg>
