<svg width="48" height="48" viewBox="0 0 48 48" fill="none" xmlns="http://www.w3.org/2000/svg">
<path d="M24 7C14.63 7 7 14.63 7 24C7 33.37 14.63 41 24 41C33.37 41 41 33.37 41 24C41 14.63 33.37 7 24 7ZM26.38 18.24C26.73 17.01 28.01 16.29 29.25 16.64C29.85 16.81 30.34 17.2 30.65 17.74C30.95 18.28 31.03 18.91 30.86 19.51C30.57 20.53 29.64 21.2 28.62 21.2C28.41 21.2 28.2 21.17 27.99 21.11C27.39 20.94 26.9 20.55 26.59 20.01C26.29 19.47 26.21 18.84 26.38 18.24ZM17.64 18.24C17.99 17.01 19.27 16.29 20.51 16.64C21.11 16.81 21.6 17.2 21.91 17.74C22.21 18.28 22.29 18.91 22.12 19.51C21.83 20.53 20.9 21.2 19.88 21.2C19.67 21.2 19.46 21.17 19.25 21.11C18.65 20.94 18.16 20.55 17.85 20.01C17.55 19.47 17.47 18.84 17.64 18.24ZM24 34C17.93 34 13 29.96 13 25C13 24.45 13.45 24 14 24C14.55 24 15 24.45 15 25C15 28.86 19.04 32 24 32C28.96 32 33 28.86 33 25C33 24.45 33.45 24 34 24C34.55 24 35 24.45 35 25C35 29.96 30.07 34 24 34Z" fill="#010101"/>
</svg>
