<svg width="48" height="48" viewBox="0 0 48 48" fill="none" xmlns="http://www.w3.org/2000/svg">
<path d="M24 7C14.63 7 7 14.63 7 24C7 33.37 14.63 41 24 41C33.37 41 41 33.37 41 24C41 14.63 33.37 7 24 7ZM26.38 18.24C26.73 17.01 28.01 16.28 29.25 16.64C30.48 16.99 31.2 18.28 30.86 19.51C30.57 20.53 29.64 21.2 28.62 21.2C28.41 21.2 28.2 21.17 27.99 21.11C26.76 20.76 26.04 19.47 26.38 18.24ZM17.63 18.24C17.98 17.01 19.26 16.28 20.5 16.64C21.73 16.99 22.45 18.28 22.11 19.51C21.82 20.53 20.89 21.2 19.87 21.2C19.66 21.2 19.45 21.17 19.24 21.11C18.01 20.76 17.29 19.47 17.63 18.24ZM33.03 30.15C30.98 32.56 27.6 34 24 34C20.4 34 17.02 32.56 14.97 30.15C14.61 29.73 14.66 29.1 15.08 28.74C15.5 28.38 16.13 28.43 16.49 28.85C18.17 30.82 20.98 32 24 32C27.02 32 29.83 30.82 31.51 28.85C31.87 28.43 32.5 28.38 32.92 28.74C33.34 29.1 33.39 29.73 33.03 30.15Z" fill="#010101"/>
</svg>
