<svg width="480" height="480" viewBox="0 0 480 480" fill="none" xmlns="http://www.w3.org/2000/svg">
<path d="M240 70C146.3 70 70 146.3 70 240C70 333.7 146.3 410 240 410C333.7 410 410 333.7 410 240C410 146.3 333.7 70 240 70ZM263.8 182.4C267.3 170.1 280.1 162.9 292.5 166.4C298.5 168.1 303.4 172 306.5 177.4C309.5 182.8 310.3 189.1 308.6 195.1C305.7 205.3 296.4 212 286.2 212C284.1 212 282 211.7 279.9 211.1C273.9 209.4 269 205.5 265.9 200.1C262.9 194.7 262.1 188.4 263.8 182.4ZM176.4 182.4C179.9 170.1 192.7 162.9 205.1 166.4C211.1 168.1 216 172 219.1 177.4C222.1 182.8 222.9 189.1 221.2 195.1C218.3 205.3 209 212 198.8 212C196.7 212 194.6 211.7 192.5 211.1C186.5 209.4 181.6 205.5 178.5 200.1C175.5 194.7 174.7 188.4 176.4 182.4ZM240 340C179.3 340 130 299.6 130 250C130 244.5 134.5 240 140 240C145.5 240 150 244.5 150 250C150 288.6 190.4 320 240 320C289.6 320 330 288.6 330 250C330 244.5 334.5 240 340 240C345.5 240 350 244.5 350 250C350 299.6 300.7 340 240 340Z" fill="#010101"/>
</svg>
