<svg width="480" height="480" viewBox="0 0 480 480" fill="none" xmlns="http://www.w3.org/2000/svg">
<path d="M240 70C146.3 70 70 146.3 70 240C70 333.7 146.3 410 240 410C333.7 410 410 333.7 410 240C410 146.3 333.7 70 240 70ZM263.7 182.4C267.2 170 280.1 162.9 292.4 166.3C304.8 169.8 311.9 182.7 308.5 195C305 207.4 292.1 214.5 279.8 211.1C267.4 207.6 260.3 194.7 263.7 182.4ZM176.3 182.4C179.8 170.1 192.6 162.9 205 166.4C217.3 169.9 224.5 182.8 221.1 195.1C218.2 205.3 208.9 212 198.7 212C196.6 212 194.5 211.7 192.4 211.1C180.1 207.6 172.9 194.7 176.3 182.4ZM310 340C304.5 340 300 335.5 300 330C300 302.4 273.1 280 240 280C206.9 280 180 302.4 180 330C180 335.5 175.5 340 170 340C164.5 340 160 335.5 160 330C160 291.4 195.9 260 240 260C284.1 260 320 291.4 320 330C320 335.5 315.5 340 310 340Z" fill="#010101"/>
</svg>
