<svg width="480" height="480" viewBox="0 0 480 480" fill="none" xmlns="http://www.w3.org/2000/svg">
<path d="M240 70C146.3 70 70 146.3 70 240C70 333.7 146.3 410 240 410C333.7 410 410 333.7 410 240C410 146.3 333.7 70 240 70ZM263.8 182.4C265.5 176.4 269.4 171.5 274.8 168.4C280.2 165.4 286.5 164.6 292.5 166.3C298.5 168 303.4 171.9 306.5 177.3C309.5 182.7 310.3 189 308.6 195C306.9 201 303 205.9 297.6 209C294.1 211 290.2 212 286.3 212C284.2 212 282 211.7 279.9 211.1C273.9 209.4 269 205.5 265.9 200.1C262.9 194.7 262.1 188.4 263.8 182.4ZM176.3 182.4C178 176.4 181.9 171.5 187.3 168.4C192.7 165.3 199 164.6 205 166.3C211 168 215.9 171.9 219 177.3C222 182.7 222.8 189 221.1 195C219.4 201 215.5 205.9 210.1 209C206.6 211 202.7 212 198.8 212C196.7 212 194.5 211.7 192.4 211.1C186.4 209.4 181.5 205.5 178.4 200.1C175.4 194.7 174.6 188.4 176.3 182.4ZM329.2 327.7C327.3 329.3 325 330.1 322.7 330.1C319.9 330.1 317.1 328.9 315.1 326.6C298.3 306.9 270.2 295.1 240 295.1C209.8 295.1 181.7 306.9 164.9 326.6C162.9 328.9 160.1 330.1 157.3 330.1C155 330.1 152.7 329.3 150.8 327.7C146.6 324.1 146.1 317.8 149.7 313.6C170.2 289.5 204 275.1 240 275.1C276 275.1 309.8 289.5 330.3 313.6C333.9 317.8 333.4 324.1 329.2 327.7Z" fill="#010101"/>
</svg>
