<svg width="480" height="480" viewBox="0 0 480 480" fill="none" xmlns="http://www.w3.org/2000/svg">
<path d="M419.079 224.12C416.579 215.12 410.679 207.62 402.479 203.12C394.279 198.52 384.879 197.42 375.879 200.02C366.879 202.52 359.379 208.42 354.879 216.62C350.279 224.82 349.179 234.22 351.779 243.22C353.679 250.02 357.579 255.82 362.579 260.22C373.379 269.42 378.279 284.12 372.479 297.02C359.879 324.82 335.579 346.52 305.479 355.02C276.279 363.32 245.279 358.12 220.379 342.22C208.179 334.42 201.479 319.22 206.579 305.62C210.079 296.32 209.579 285.42 203.979 275.72C197.479 264.52 184.779 257.62 171.879 258.52C148.779 260.02 134.179 282.02 140.179 303.02C142.479 311.12 147.579 317.92 154.479 322.52C161.779 327.42 167.879 333.82 173.579 340.52C198.979 370.82 237.179 389.02 277.079 389.02C289.479 389.02 301.779 387.32 313.779 383.92C348.479 374.12 377.279 351.32 394.879 319.92C403.079 305.32 408.479 289.22 410.779 272.72C411.979 264.32 413.779 256.02 417.379 248.32C420.979 240.62 421.579 232.32 419.379 224.22L419.079 224.12Z" fill="#010101"/>
<path d="M234.579 131.52C259.379 145.42 275.979 170.319 280.979 198.819C283.379 212.419 276.679 226.82 263.879 232.22C256.979 235.12 250.979 240.319 247.079 247.319C242.479 255.519 241.379 264.919 243.979 273.919C246.479 282.919 252.379 290.419 260.579 294.919C265.979 297.919 271.779 299.319 277.579 299.319C289.879 299.319 301.779 292.819 308.179 281.419C313.879 271.219 314.079 259.12 308.779 248.62C322.279 191.32 297.979 132.52 249.079 105.22C205.979 81.1195 151.579 86.2195 110.779 116.419C102.779 122.319 93.7791 126.42 84.2791 129.42C76.0791 132.02 68.8791 137.719 64.4791 145.619C59.8791 153.819 58.7791 163.22 61.3791 172.22C64.7791 184.32 74.3791 193.72 87.2791 196.92C96.5791 199.22 106.679 197.22 114.579 191.82C125.479 184.22 130.479 172.62 129.979 161.22C129.379 147.32 136.179 134.32 148.879 128.72C176.679 116.32 208.279 116.819 234.479 131.419L234.579 131.52Z" fill="#010101"/>
</svg>
