<svg width="480" height="480" viewBox="0 0 480 480" fill="none" xmlns="http://www.w3.org/2000/svg">
<path d="M240 70C146.3 70 70 146.3 70 240C70 333.7 146.3 410 240 410C333.7 410 410 333.7 410 240C410 146.3 333.8 70 240 70ZM178.4 200.1C175.4 194.7 174.6 188.4 176.3 182.4C178 176.4 181.9 171.5 187.3 168.4C192.7 165.4 199 164.6 205 166.3C211 168 215.9 171.9 219 177.3C222 182.7 222.8 189 221.1 195C219.4 201 215.5 205.9 210.1 209C206.6 211 202.7 212 198.8 212C196.7 212 194.5 211.7 192.4 211.1C186.4 209.4 181.5 205.5 178.4 200.1ZM280 325H200C194.5 325 190 320.5 190 315C190 309.5 194.5 305 200 305H280C285.5 305 290 309.5 290 315C290 320.5 285.5 325 280 325ZM308.5 195C306.8 201 302.9 205.9 297.5 209C294 211 290.1 212 286.2 212C284.1 212 281.9 211.7 279.8 211.1C273.8 209.4 268.9 205.5 265.8 200.1C262.8 194.7 262 188.4 263.7 182.4C265.4 176.4 269.3 171.5 274.7 168.4C280.1 165.4 286.4 164.6 292.4 166.3C298.4 168 303.3 171.9 306.4 177.3C309.4 182.7 310.2 189 308.5 195Z" fill="#010101"/>
</svg>
