<svg width="48" height="48" viewBox="0 0 48 48" fill="none" xmlns="http://www.w3.org/2000/svg">
<path d="M24 7C14.63 7 7 14.63 7 24C7 33.37 14.63 41 24 41C33.37 41 41 33.37 41 24C41 14.63 33.38 7 24 7ZM17.84 20.01C17.54 19.47 17.46 18.84 17.63 18.24C17.8 17.64 18.19 17.15 18.73 16.84C19.27 16.54 19.9 16.46 20.5 16.63C21.1 16.8 21.59 17.19 21.9 17.73C22.2 18.27 22.28 18.9 22.11 19.5C21.94 20.1 21.55 20.59 21.01 20.9C20.66 21.1 20.27 21.2 19.88 21.2C19.67 21.2 19.45 21.17 19.24 21.11C18.64 20.94 18.15 20.55 17.84 20.01ZM28 32.5H20C19.45 32.5 19 32.05 19 31.5C19 30.95 19.45 30.5 20 30.5H28C28.55 30.5 29 30.95 29 31.5C29 32.05 28.55 32.5 28 32.5ZM30.85 19.5C30.68 20.1 30.29 20.59 29.75 20.9C29.4 21.1 29.01 21.2 28.62 21.2C28.41 21.2 28.19 21.17 27.98 21.11C27.38 20.94 26.89 20.55 26.58 20.01C26.28 19.47 26.2 18.84 26.37 18.24C26.54 17.64 26.93 17.15 27.47 16.84C28.01 16.54 28.64 16.46 29.24 16.63C29.84 16.8 30.33 17.19 30.64 17.73C30.94 18.27 31.02 18.9 30.85 19.5Z" fill="#010101"/>
</svg>
