<svg width="48" height="48" viewBox="0 0 48 48" fill="none" xmlns="http://www.w3.org/2000/svg">
<path d="M24 7C14.63 7 7 14.63 7 24C7 33.37 14.63 41 24 41C33.37 41 41 33.37 41 24C41 14.63 33.37 7 24 7ZM26.38 18.24C26.55 17.64 26.94 17.15 27.48 16.84C28.02 16.54 28.65 16.46 29.25 16.63C29.85 16.8 30.34 17.19 30.65 17.73C30.95 18.27 31.03 18.9 30.86 19.5C30.69 20.1 30.3 20.59 29.76 20.9C29.41 21.1 29.02 21.2 28.63 21.2C28.42 21.2 28.2 21.17 27.99 21.11C27.39 20.94 26.9 20.55 26.59 20.01C26.29 19.47 26.21 18.84 26.38 18.24ZM17.63 18.24C17.8 17.64 18.19 17.15 18.73 16.84C19.27 16.53 19.9 16.46 20.5 16.63C21.1 16.8 21.59 17.19 21.9 17.73C22.2 18.27 22.28 18.9 22.11 19.5C21.94 20.1 21.55 20.59 21.01 20.9C20.66 21.1 20.27 21.2 19.88 21.2C19.67 21.2 19.45 21.17 19.24 21.11C18.64 20.94 18.15 20.55 17.84 20.01C17.54 19.47 17.46 18.84 17.63 18.24ZM32.92 32.77C32.73 32.93 32.5 33.01 32.27 33.01C31.99 33.01 31.71 32.89 31.51 32.66C29.83 30.69 27.02 29.51 24 29.51C20.98 29.51 18.17 30.69 16.49 32.66C16.29 32.89 16.01 33.01 15.73 33.01C15.5 33.01 15.27 32.93 15.08 32.77C14.66 32.41 14.61 31.78 14.97 31.36C17.02 28.95 20.4 27.51 24 27.51C27.6 27.51 30.98 28.95 33.03 31.36C33.39 31.78 33.34 32.41 32.92 32.77Z" fill="#010101"/>
</svg>
