<svg width="48" height="48" viewBox="0 0 48 48" fill="none" xmlns="http://www.w3.org/2000/svg">
<path d="M24 7C14.63 7 7 14.63 7 24C7 33.37 14.63 41 24 41C33.37 41 41 33.37 41 24C41 14.63 33.37 7 24 7ZM26.37 18.24C26.72 17 28.01 16.29 29.24 16.63C30.48 16.98 31.19 18.27 30.85 19.5C30.5 20.74 29.21 21.45 27.98 21.11C26.74 20.76 26.03 19.47 26.37 18.24ZM17.63 18.24C17.98 17.01 19.26 16.29 20.5 16.64C21.73 16.99 22.45 18.28 22.11 19.51C21.82 20.53 20.89 21.2 19.87 21.2C19.66 21.2 19.45 21.17 19.24 21.11C18.01 20.76 17.29 19.47 17.63 18.24ZM31 34C30.45 34 30 33.55 30 33C30 30.24 27.31 28 24 28C20.69 28 18 30.24 18 33C18 33.55 17.55 34 17 34C16.45 34 16 33.55 16 33C16 29.14 19.59 26 24 26C28.41 26 32 29.14 32 33C32 33.55 31.55 34 31 34Z" fill="#010101"/>
</svg>
