<svg width="84" height="84" viewBox="0 0 84 84" fill="none" xmlns="http://www.w3.org/2000/svg">
<path d="M58.6787 24.9468C57.9219 24.1899 56.6994 24.1899 55.9426 24.9468C55.1858 25.7036 55.1858 26.9261 55.9426 27.6829C59.6102 31.3505 61.6284 36.2212 61.6284 41.4024C61.6284 46.5836 59.6102 51.4544 55.962 55.122C55.2052 55.8788 55.2052 57.1013 55.962 57.8775C56.3501 58.2462 56.8352 58.4403 57.3398 58.4403C57.8443 58.4403 58.3295 58.2462 58.7176 57.8775C63.1032 53.4725 65.5288 47.6315 65.5288 41.4218C65.5288 35.2122 63.1032 29.3518 58.7176 24.9662L58.6787 24.9468Z" fill="#BFDFFF"/>
<path d="M65.5498 16.6999C64.793 15.9431 63.5705 15.9431 62.8137 16.6999C62.0569 17.4567 62.0569 18.6793 62.8137 19.4361C68.6935 25.2965 71.9148 33.0974 71.9148 41.4028C71.9148 49.7083 68.6935 57.4898 62.8331 63.3502C62.0763 64.107 62.0763 65.3296 62.8331 66.0864C63.2212 66.4745 63.7063 66.6491 64.2109 66.6491C64.7154 66.6491 65.2005 66.4551 65.5887 66.0864C72.1864 59.4886 75.8152 50.7174 75.8152 41.4028C75.8152 32.0883 72.1864 23.2977 65.5692 16.6999H65.5498Z" fill="#BFDFFF"/>
<path d="M50.3705 19.9014C51.0303 19.1252 51.3796 18.1355 51.3796 17.1264C51.3796 14.7202 49.4197 12.7603 47.0134 12.7603C44.8595 12.7603 42.9965 14.3709 42.6861 16.4861C42.4726 17.9609 41.677 19.2804 40.4739 20.1343L33.488 25.2184C32.5565 25.8976 31.4116 26.2663 30.2473 26.2663H21.5925C18.4101 26.2663 15.2276 27.7993 12.8601 30.4967C11.5018 32.0103 10.4927 33.8344 9.91055 35.7361C9.61947 36.6676 9.09552 37.5214 8.37753 38.1812C7.46548 39.0156 6.96094 40.1799 6.96094 41.4025C6.96094 42.5086 7.36846 43.5564 8.12527 44.352C8.86267 45.1477 9.34779 46.1179 9.54184 47.1852C9.94935 49.6109 11.1525 52.0365 12.8796 53.9965C15.2664 56.6744 18.4489 58.2268 21.6119 58.2268H30.519C31.528 58.2268 32.5177 58.4985 33.3715 59.0224L40.2216 63.1752C41.5023 63.9514 42.4144 65.2321 42.7443 66.6875C43.1712 68.6669 44.9759 70.1223 47.0134 70.1223C49.4197 70.1223 51.3796 68.1623 51.3796 65.7561C51.3796 64.747 51.0109 63.7573 50.3705 62.9811C49.5361 61.9914 49.0898 60.7495 49.0898 59.4494V23.4332C49.0898 22.133 49.5361 20.8911 50.3705 19.9014ZM45.2088 51.8813C45.2088 51.8813 45.2088 51.8813 45.2088 51.9007V59.3135C45.2088 60.342 44.0832 60.9824 43.1906 60.439L34.0701 54.9085L33.1387 54.3458H21.6119C18.7788 54.3458 16.7412 52.5217 15.7903 51.435C15.4022 50.9887 15.0529 50.5229 14.7425 50.0184C13.5587 48.1361 13.6364 45.7298 14.9171 43.9251C15.4411 43.1877 15.7127 42.3339 15.7127 41.4219C15.7127 40.7039 15.5187 39.9859 15.1694 39.3455C14.0633 37.3468 14.3349 34.8629 15.7903 33.1358C15.7903 33.1358 15.8874 33.0194 15.9262 32.9806C15.9262 32.9806 15.9262 32.9806 15.9456 32.9612C15.9456 32.9612 15.965 32.9612 15.965 32.9417C16.2949 32.5925 16.7024 32.2043 17.2069 31.8162C17.2069 31.8162 17.2457 31.7968 17.2457 31.7774C17.6338 31.4864 18.0996 31.1953 18.5847 30.943C18.6041 30.943 18.6235 30.9236 18.6429 30.9042C19.0504 30.7101 19.4968 30.5355 19.9819 30.4191C20.0595 30.3997 20.1371 30.3802 20.2147 30.3608C20.6611 30.2638 21.1074 30.1862 21.5925 30.1862H33.2939L34.3224 29.4488L43.0742 23.0839C43.9474 22.4435 45.1699 23.0839 45.1699 24.1512V32.3402C45.1699 32.3402 45.1699 32.3402 45.1699 32.3596V51.9201L45.2088 51.8813Z" fill="#BFDFFF"/>
</svg>
