<svg width="480" height="480" viewBox="0 0 480 480" fill="none" xmlns="http://www.w3.org/2000/svg">
<path d="M61.5853 224.12C64.0853 215.12 69.9853 207.62 78.1853 203.12C86.3853 198.52 95.7853 197.42 104.785 200.02C113.785 202.52 121.285 208.42 125.785 216.62C130.385 224.82 131.485 234.22 128.885 243.22C126.985 250.02 123.085 255.82 118.085 260.22C107.285 269.42 102.385 284.12 108.185 297.02C120.785 324.82 145.085 346.52 175.185 355.02C204.385 363.32 235.385 358.12 260.285 342.22C272.485 334.42 279.185 319.22 274.085 305.62C270.585 296.32 271.085 285.42 276.685 275.72C283.185 264.52 295.885 257.62 308.785 258.52C331.885 260.02 346.485 282.02 340.485 303.02C338.185 311.12 333.085 317.92 326.185 322.52C318.885 327.42 312.785 333.82 307.085 340.52C281.685 370.82 243.485 389.02 203.585 389.02C191.185 389.02 178.885 387.32 166.885 383.92C132.185 374.12 103.385 351.32 85.7853 319.92C77.5853 305.32 72.1853 289.22 69.8853 272.72C68.6853 264.32 66.8853 256.02 63.2853 248.32C59.6853 240.62 59.0853 232.32 61.2853 224.22L61.5853 224.12Z" fill="#010101"/>
<path d="M246.085 131.52C221.285 145.42 204.685 170.319 199.685 198.819C197.285 212.419 203.985 226.82 216.785 232.22C223.685 235.12 229.685 240.319 233.585 247.319C238.185 255.519 239.285 264.919 236.685 273.919C234.185 282.919 228.285 290.419 220.085 294.919C214.685 297.919 208.885 299.319 203.085 299.319C190.785 299.319 178.885 292.819 172.485 281.419C166.785 271.219 166.585 259.12 171.885 248.62C158.385 191.32 182.685 132.52 231.585 105.22C274.685 81.1195 329.085 86.2195 369.885 116.419C377.885 122.319 386.885 126.42 396.385 129.42C404.585 132.02 411.785 137.719 416.185 145.619C420.785 153.819 421.885 163.22 419.285 172.22C415.885 184.32 406.285 193.72 393.385 196.92C384.085 199.22 373.985 197.22 366.085 191.82C355.185 184.22 350.185 172.62 350.685 161.22C351.285 147.32 344.485 134.32 331.785 128.72C303.985 116.32 272.385 116.819 246.185 131.419L246.085 131.52Z" fill="#010101"/>
</svg>
