<svg width="68" height="68" viewBox="0 0 68 68" fill="none" xmlns="http://www.w3.org/2000/svg">
<path d="M55.595 16.3364C55.6936 15.8434 55.6936 15.3082 55.5386 14.7447C55.2287 13.6461 54.3272 12.7587 53.2426 12.4488C52.6792 12.2938 52.1439 12.2797 51.6509 12.3924C50.8762 12.5615 50.0873 12.3924 49.4535 11.9276C44.2698 8.29348 37.7762 6.40599 30.8177 7.22296C18.5629 8.65971 8.66041 18.562 7.22364 30.8166C6.40666 37.789 8.29418 44.2826 11.9425 49.4661C12.3932 50.1 12.5763 50.8888 12.4073 51.6494C12.365 51.8607 12.3369 52.0861 12.3369 52.3114C12.3369 54.1567 13.8441 55.6638 15.6893 55.6638C15.9147 55.6638 16.1401 55.6357 16.3514 55.5934C17.112 55.4385 17.9008 55.6075 18.5347 56.0583C23.7183 59.7065 30.2261 61.594 37.1846 60.777C49.4535 59.3543 59.3559 49.4379 60.7786 37.1693C61.5956 30.1968 59.694 23.6892 56.0457 18.5197C55.595 17.8718 55.4118 17.083 55.5809 16.3083L55.595 16.3364ZM49.0731 15.8434C49.1013 16.3646 48.9041 16.8717 48.552 17.2379L44.96 20.858V17.5337C44.96 17.0266 44.6783 16.5618 44.2276 16.3364C44.0304 16.2378 43.8191 16.1956 43.6219 16.1956C43.3401 16.1956 43.0584 16.2801 42.833 16.4491L33.1419 23.5061H25.8876C23.4366 23.5061 21.2956 24.7738 19.8165 26.45C18.3375 28.1121 17.3796 30.3236 17.3796 32.4787V36.7467C17.3796 38.9018 18.3375 41.1133 19.8165 42.7754H19.8306C20.6476 43.7191 20.6194 45.1841 19.732 46.0574L17.2247 48.5646C16.8585 48.9309 16.3655 49.114 15.8584 49.0999C15.3231 49.0717 14.8019 48.8182 14.4779 48.3815C10.8297 43.4374 8.9844 37.0707 10.0268 30.2532C11.6326 19.717 20.0419 11.4346 30.6064 9.98377C37.2832 9.05411 43.5092 10.8993 48.3688 14.4912C48.8055 14.8152 49.0591 15.3223 49.0872 15.8575L49.0731 15.8434ZM40.9878 24.7879L24.6903 41.0851C23.8733 41.9021 22.5915 41.8598 21.8308 41.0006C20.7321 39.747 20.0701 38.1553 20.0701 36.7467V32.4787C20.0701 31.0701 20.7321 29.4784 21.8308 28.2389C22.507 27.4783 23.9155 26.2105 25.8876 26.2105H34.0293L34.7336 25.6894L42.2696 20.1959V21.7031C42.2696 22.8581 41.8048 23.9709 40.9878 24.7879ZM42.2696 27.3233V48.0857L34.5364 43.3952L33.8884 43.0008H26.5778L42.2555 27.3233H42.2696ZM53.4398 19.5762C57.2289 24.647 59.1306 31.211 57.9192 38.2539C56.2007 48.297 48.5801 56.016 38.5791 57.8753C31.4234 59.1994 24.7466 57.3119 19.5911 53.4665C19.1967 53.1707 18.9432 52.7199 18.8868 52.241L18.8305 51.7762C18.7601 51.2128 18.9573 50.6634 19.3517 50.2549L22.5069 47.0997C23.3944 46.2123 24.6058 45.7052 25.8735 45.7052H33.156L42.8471 51.5931C43.0866 51.7621 43.3542 51.8466 43.6359 51.8466C43.8472 51.8466 44.0585 51.8044 44.2416 51.7058C44.6924 51.4804 44.9741 51.0155 44.9741 50.5085V27.1402C44.9741 25.5344 45.608 23.985 46.749 22.8581L50.2564 19.3508C50.6508 18.9564 51.2142 18.7592 51.7777 18.8296L52.2002 18.886C52.6932 18.9423 53.144 19.1958 53.4398 19.5902V19.5762Z" fill="#BFDFFF"/>
</svg>
