<svg width="48" height="48" viewBox="0 0 48 48" fill="none" xmlns="http://www.w3.org/2000/svg">
<path d="M41.9079 22.4119C41.6579 21.5119 41.0679 20.7619 40.2479 20.3119C39.4279 19.8519 38.4879 19.7419 37.5879 20.0019C36.6879 20.2519 35.9379 20.8419 35.4879 21.6619C35.0279 22.4819 34.9179 23.4219 35.1779 24.3219C35.3679 25.0019 35.7579 25.5819 36.2579 26.0219C37.3379 26.9419 37.8279 28.4119 37.2479 29.7019C35.9879 32.4819 33.5579 34.6519 30.5479 35.5019C27.6279 36.3319 24.5279 35.8119 22.0379 34.2219C20.8179 33.4419 20.1479 31.9219 20.6579 30.5619C21.0079 29.6319 20.9579 28.5419 20.3979 27.5719C19.7479 26.4519 18.4779 25.7619 17.1879 25.8519C14.8779 26.0019 13.4179 28.2019 14.0179 30.3019C14.2479 31.1119 14.7579 31.7919 15.4479 32.2519C16.1779 32.7419 16.7879 33.3819 17.3579 34.0519C19.8979 37.0819 23.7179 38.9019 27.7079 38.9019C28.9479 38.9019 30.1779 38.7319 31.3779 38.3919C34.8479 37.4119 37.7279 35.1319 39.4879 31.9919C40.3079 30.5319 40.8479 28.9219 41.0779 27.2719C41.1979 26.4319 41.3779 25.6019 41.7379 24.8319C42.0979 24.0619 42.1579 23.2319 41.9379 22.4219L41.9079 22.4119Z" fill="#010101"/>
<path d="M23.4579 13.152C25.9379 14.542 27.5979 17.0319 28.0979 19.8819C28.3379 21.2419 27.6679 22.682 26.3879 23.222C25.6979 23.512 25.0979 24.0319 24.7079 24.7319C24.2479 25.5519 24.1379 26.4919 24.3979 27.3919C24.6479 28.2919 25.2379 29.0419 26.0579 29.4919C26.5979 29.7919 27.1779 29.9319 27.7579 29.9319C28.9879 29.9319 30.1779 29.2819 30.8179 28.1419C31.3879 27.1219 31.4079 25.912 30.8779 24.862C32.2279 19.132 29.7979 13.252 24.9079 10.522C20.5979 8.11195 15.1579 8.62195 11.0779 11.6419C10.2779 12.2319 9.37791 12.642 8.42791 12.942C7.60791 13.202 6.88791 13.7719 6.44791 14.5619C5.98791 15.3819 5.87791 16.322 6.13791 17.222C6.47791 18.432 7.43791 19.372 8.72791 19.692C9.65791 19.922 10.6679 19.722 11.4579 19.182C12.5479 18.422 13.0479 17.262 12.9979 16.122C12.9379 14.732 13.6179 13.432 14.8879 12.872C17.6679 11.632 20.8279 11.6819 23.4479 13.1419L23.4579 13.152Z" fill="#010101"/>
</svg>
