<svg width="48" height="48" viewBox="0 0 48 48" fill="none" xmlns="http://www.w3.org/2000/svg">
<path d="M36.5897 28.0572C36.2897 26.8688 35.8138 25.729 35.1414 24.6673C34.8828 24.2581 34.8828 23.7613 35.1414 23.3425C35.7931 22.2904 36.2897 21.141 36.5793 19.9526C36.6621 19.6214 36.8586 19.3291 37.169 19.1635C38.2862 18.5693 39 17.4589 39 16.212C39 14.7411 38.0069 13.4748 36.5793 13.0072C36.2379 12.9 35.9793 12.637 35.8448 12.3253C33.7965 7.91259 29.1517 5 24 5C18.8483 5 14.2035 7.90285 12.1552 12.3253C12.0103 12.637 11.7517 12.8903 11.4207 13.0072C9.99311 13.4748 9 14.7411 9 16.212C9 17.4589 9.7138 18.5693 10.831 19.1635C11.1414 19.3291 11.3379 19.6214 11.4207 19.9526C11.7207 21.141 12.2069 22.2904 12.8586 23.3425C13.1172 23.7516 13.1172 24.2484 12.8586 24.6575C12.1966 25.7096 11.7103 26.859 11.4207 28.0474C11.3379 28.3786 11.1414 28.6709 10.831 28.8365C9.7138 29.4307 9 30.5411 9 31.788C9 33.2589 9.99311 34.5253 11.4207 34.9928C11.7621 35.1 12.0207 35.363 12.1552 35.6747C14.2035 40.0874 18.8483 43 24 43C29.1517 43 33.8379 39.99 35.8345 35.6844C35.9793 35.3727 36.2379 35.1195 36.569 35.0123C37.9759 34.5447 38.9897 33.2784 38.9897 31.7977C38.9897 30.5314 38.2552 29.4307 37.1586 28.8462C36.8483 28.6806 36.6517 28.3884 36.569 28.0572H36.5897ZM24 40.0777C20.4 40.0777 17.0793 38.1782 15.3828 35.2364C15.1241 34.7883 15.1966 34.2525 15.5172 33.8434C15.9828 33.2589 16.2414 32.5478 16.2414 31.7977C16.2414 30.8236 15.8069 29.9275 15.0828 29.2943C14.6793 28.9436 14.5035 28.4273 14.669 27.9403C14.6793 27.9111 14.6897 27.8721 14.7 27.8429C14.9793 27.0538 15.9828 26.7713 16.7172 27.2389C18.8483 28.6221 21.3724 29.3625 24 29.3625C26.6276 29.3625 29.1414 28.6221 31.2724 27.2487C32.0069 26.7811 33.0103 27.0733 33.2896 27.8623C33.3 27.9013 33.3207 27.9403 33.331 27.9792C33.4966 28.4663 33.3103 28.9826 32.9172 29.3235C32.2034 29.9469 31.7586 30.8236 31.7586 31.7977C31.7586 32.5673 32.0379 33.2687 32.4931 33.8336C32.8241 34.2525 32.8965 34.798 32.6276 35.2461C30.9621 38.1197 27.7138 40.0777 24 40.0777ZM16.2414 16.212C16.2414 15.4619 15.9828 14.7508 15.5172 14.1664C15.1862 13.7572 15.1241 13.2215 15.3828 12.7734C17.0897 9.83158 20.4 7.93207 24 7.93207C27.6 7.93207 30.9207 9.83158 32.6172 12.7734C32.8759 13.2215 32.8034 13.7572 32.4828 14.1664C32.0172 14.7508 31.7586 15.4619 31.7586 16.212C31.7586 17.1861 32.1931 18.0823 32.9172 18.7155C33.3207 19.0661 33.4966 19.5824 33.331 20.0695C33.3207 20.0987 33.3103 20.1377 33.3 20.1669C33.0207 20.9559 32.0172 21.2384 31.2828 20.7708C29.1517 19.3876 26.6276 18.6473 24 18.6473C21.3724 18.6473 18.8483 19.3876 16.7172 20.7708C15.9931 21.2384 14.9897 20.9559 14.7 20.1669C14.6897 20.1377 14.6793 20.0987 14.669 20.0695C14.5035 19.5824 14.6793 19.0661 15.0828 18.7155C15.8069 18.0823 16.2414 17.1861 16.2414 16.212ZM24 21.5696C25.8414 21.5696 27.6 22.0469 29.131 22.9334C29.9793 23.4301 29.9793 24.5796 29.131 25.0764C27.6 25.9628 25.8414 26.4401 24 26.4401C22.1586 26.4401 20.4 25.9628 18.869 25.0764C18.0207 24.5796 18.0207 23.4301 18.869 22.9334C20.4 22.0469 22.1586 21.5696 24 21.5696Z" fill="#010101"/>
</svg>
