<svg width="48" height="48" viewBox="0 0 48 48" fill="none" xmlns="http://www.w3.org/2000/svg">
<path d="M33.2295 7.82805C33.5335 7.60676 33.9363 7.57459 34.2715 7.74504C34.6068 7.91568 34.8184 8.26043 34.8184 8.63665V39.3642C34.8182 39.7402 34.6066 40.0842 34.2715 40.2548C33.9363 40.4253 33.5335 40.394 33.2295 40.1728L24.4531 33.7822H16.6279C14.4928 33.7819 12.6266 32.6825 11.3213 31.2089C10.0204 29.7403 9.18178 27.797 9.18164 25.9228V22.0781C9.18165 20.2038 10.0204 18.2606 11.3213 16.7919C12.6266 15.3183 14.4927 14.2189 16.6279 14.2187H24.4512L33.2295 7.82805Z" fill="black" style="mix-blend-mode:color-burn"/>
</svg>
