<svg width="480" height="480" viewBox="0 0 480 480" fill="none" xmlns="http://www.w3.org/2000/svg">
<path d="M405.928 156.966C401.583 149.198 394.592 143.61 386.09 141.241C377.588 138.873 368.709 139.915 360.963 144.178C353.216 148.535 347.643 155.545 345.281 164.07C344.431 167.006 344.053 170.038 344.053 173.069C344.053 184.909 340.369 196.466 332.151 204.991L211.141 332.489C210.196 333.437 208.779 334.1 207.551 333.91C206.229 333.91 205.001 333.247 204.151 332.205L136.891 249.037C134.53 246.101 133.963 242.312 135.002 238.712V238.523C139.064 223.083 131.129 206.127 116.581 199.686C106.851 195.329 96.0824 195.897 86.9192 201.012C79.1731 205.37 73.5997 212.379 71.238 220.904C68.8764 229.43 69.9155 238.334 74.1665 246.101C78.5119 253.868 85.5023 259.457 94.0041 261.825C94.0041 261.825 94.0986 261.825 94.1931 261.825C107.04 265.425 119.037 271.771 127.539 282.096L195.649 364.885C198.199 368.011 201.978 369.905 206.04 370C206.229 370 206.418 370 206.607 370C210.48 370 214.164 368.39 216.809 365.643L356.995 219.578C364.363 211.906 374.093 207.643 384.39 205.275C387.413 204.612 390.341 203.475 393.081 201.865C400.827 197.508 406.4 190.498 408.762 181.973C411.124 173.448 410.084 164.544 405.834 156.776L405.928 156.966Z" fill="#010101"/>
</svg>
