<svg width="480" height="480" viewBox="0 0 480 480" fill="none" xmlns="http://www.w3.org/2000/svg">
<path d="M365.897 280.572C362.897 268.688 358.138 257.29 351.414 246.673C348.828 242.581 348.828 237.613 351.414 233.425C357.931 222.904 362.897 211.41 365.793 199.526C366.621 196.214 368.586 193.291 371.69 191.635C382.862 185.693 390 174.589 390 162.12C390 147.411 380.069 134.748 365.793 130.072C362.379 129 359.793 126.37 358.448 123.253C337.965 79.1259 291.517 50 240 50C188.483 50 142.035 79.0285 121.552 123.253C120.103 126.37 117.517 128.903 114.207 130.072C99.9311 134.748 90 147.411 90 162.12C90 174.589 97.138 185.693 108.31 191.635C111.414 193.291 113.379 196.214 114.207 199.526C117.207 211.41 122.069 222.904 128.586 233.425C131.172 237.516 131.172 242.484 128.586 246.575C121.966 257.096 117.103 268.59 114.207 280.474C113.379 283.786 111.414 286.709 108.31 288.365C97.138 294.307 90 305.411 90 317.88C90 332.589 99.9311 345.253 114.207 349.928C117.621 351 120.207 353.63 121.552 356.747C142.035 400.874 188.483 430 240 430C291.517 430 338.379 399.9 358.345 356.844C359.793 353.727 362.379 351.195 365.69 350.123C379.759 345.447 389.897 332.784 389.897 317.977C389.897 305.314 382.552 294.307 371.586 288.462C368.483 286.806 366.517 283.884 365.69 280.572H365.897ZM240 400.777C204 400.777 170.793 381.782 153.828 352.364C151.241 347.883 151.966 342.525 155.172 338.434C159.828 332.589 162.414 325.478 162.414 317.977C162.414 308.236 158.069 299.275 150.828 292.943C146.793 289.436 145.035 284.273 146.69 279.403C146.793 279.111 146.897 278.721 147 278.429C149.793 270.538 159.828 267.713 167.172 272.389C188.483 286.221 213.724 293.625 240 293.625C266.276 293.625 291.414 286.221 312.724 272.487C320.069 267.811 330.103 270.733 332.897 278.623C333 279.013 333.207 279.403 333.31 279.792C334.966 284.663 333.103 289.826 329.172 293.235C322.034 299.469 317.586 308.236 317.586 317.977C317.586 325.673 320.379 332.687 324.931 338.336C328.241 342.525 328.965 347.98 326.276 352.461C309.621 381.197 277.138 400.777 240 400.777ZM162.414 162.12C162.414 154.619 159.828 147.508 155.172 141.664C151.862 137.572 151.241 132.215 153.828 127.734C170.897 98.3158 204 79.3207 240 79.3207C276 79.3207 309.207 98.3158 326.172 127.734C328.759 132.215 328.034 137.572 324.828 141.664C320.172 147.508 317.586 154.619 317.586 162.12C317.586 171.861 321.931 180.823 329.172 187.155C333.207 190.661 334.966 195.824 333.31 200.695C333.207 200.987 333.104 201.377 333 201.669C330.207 209.559 320.172 212.384 312.828 207.708C291.517 193.876 266.276 186.473 240 186.473C213.724 186.473 188.483 193.876 167.172 207.708C159.931 212.384 149.897 209.559 147 201.669C146.897 201.377 146.793 200.987 146.69 200.695C145.035 195.824 146.793 190.661 150.828 187.155C158.069 180.823 162.414 171.861 162.414 162.12ZM240 215.696C258.414 215.696 276 220.469 291.31 229.334C299.793 234.301 299.793 245.796 291.31 250.764C276 259.628 258.414 264.401 240 264.401C221.586 264.401 204 259.628 188.69 250.764C180.207 245.796 180.207 234.301 188.69 229.334C204 220.469 221.586 215.696 240 215.696Z" fill="#010101"/>
</svg>
