<svg width="480" height="480" viewBox="0 0 480 480" fill="none" xmlns="http://www.w3.org/2000/svg">
<path d="M240 70C146.3 70 70 146.3 70 240C70 333.7 146.3 410 240 410C333.7 410 410 333.7 410 240C410 146.3 333.7 70 240 70ZM263.8 182.4C267.3 170.1 280.1 162.8 292.5 166.4C304.8 169.9 312 182.8 308.6 195.1C305.7 205.3 296.4 212 286.2 212C284.1 212 282 211.7 279.9 211.1C267.6 207.6 260.4 194.7 263.8 182.4ZM176.3 182.4C179.8 170.1 192.6 162.8 205 166.4C217.3 169.9 224.5 182.8 221.1 195.1C218.2 205.3 208.9 212 198.7 212C196.6 212 194.5 211.7 192.4 211.1C180.1 207.6 172.9 194.7 176.3 182.4ZM330.3 301.5C309.8 325.6 276 340 240 340C204 340 170.2 325.6 149.7 301.5C146.1 297.3 146.6 291 150.8 287.4C155 283.8 161.3 284.3 164.9 288.5C181.7 308.2 209.8 320 240 320C270.2 320 298.3 308.2 315.1 288.5C318.7 284.3 325 283.8 329.2 287.4C333.4 291 333.9 297.3 330.3 301.5Z" fill="#010101"/>
</svg>
